<svg xmlns="http://www.w3.org/2000/svg" xml:space="preserve" id="Layer_1" version="1.1" viewBox="0 0 512 512"><path d="M256 10.449C120.386 10.449 10.449 120.386 10.449 256S120.386 501.551 256 501.551 501.551 391.614 501.551 256 391.614 10.449 256 10.449m0 345.861c-55.399 0-100.31-44.911-100.31-100.31S200.601 155.69 256 155.69 356.31 200.601 356.31 256 311.399 356.31 256 356.31" style="fill:#ffa30c"/><path d="M256 10.449C120.386 10.449 10.449 120.386 10.449 256c0 26.594 4.244 52.192 12.064 76.175 2.643 7.215 9.482 12.398 17.557 12.552 10.711.206 19.478-8.789 19.478-19.53v-9.365c0-13.218 10.561-23.962 23.684-24.213 13.542-.26 24.626 11.113 24.626 24.692v23.71c0 13.218 10.561 23.963 23.684 24.213 13.542.26 24.626-11.112 24.626-24.692v-25.763c0-6.633 3.344-12.6 8.425-16.147l.114-.018c-5.789-12.676-9.017-26.767-9.017-41.614 0-55.399 44.911-100.31 100.31-100.31S356.31 200.601 356.31 256c0 3.92-.233 7.787-.671 11.591l.671-.106c11.108.213 20.048 9.308 20.048 20.497v25.773c0 14.146 11.303 25.645 25.347 25.914 14.493.278 26.355-11.893 26.355-26.426v-24.856c0-11.495 9.383-21.122 20.846-20.902 11.108.213 20.048 9.308 20.048 20.497v2.721c0 11.189 8.94 20.284 20.048 20.497h.031l6.056.956a246.2 246.2 0 0 0 6.46-56.156C501.551 120.386 391.614 10.449 256 10.449" style="fill:#871b00"/><path d="M333.468 81.336c-1.344 0-2.709-.261-4.026-.811-41.69-17.429-88.395-19.439-131.51-5.657-5.494 1.756-11.377-1.275-13.134-6.772s1.275-11.377 6.772-13.134c47.839-15.291 99.665-13.059 145.933 6.282 5.325 2.226 7.837 8.347 5.61 13.67a10.46 10.46 0 0 1-9.645 6.422m29.049 15.06c-1.917 0-3.856-.527-5.587-1.626-4.828-3.041-6.33-9.406-3.346-14.29 3.008-4.925 9.44-6.476 14.364-3.467.117.071.261.163.375.239 4.801 3.201 6.099 9.688 2.898 14.49a10.44 10.44 0 0 1-8.704 4.654m62.758 97.955a10.4 10.4 0 0 1-7.388-3.061c-4.08-4.08-4.08-10.697 0-14.778l14.629-14.629c4.08-4.08 10.697-4.08 14.778 0 4.08 4.08 4.08 10.697 0 14.778l-14.629 14.629a10.42 10.42 0 0 1-7.39 3.061M61.981 247.084a10.4 10.4 0 0 1-7.388-3.061c-4.08-4.08-4.08-10.697 0-14.778l14.629-14.629c4.08-4.08 10.697-4.08 14.778 0 4.08 4.08 4.08 10.697 0 14.778l-14.629 14.629a10.42 10.42 0 0 1-7.39 3.061M93.49 132.702a10.4 10.4 0 0 1-7.388-3.061c-4.08-4.08-4.08-10.697 0-14.778l14.629-14.629c4.08-4.08 10.697-4.08 14.778 0 4.08 4.08 4.08 10.697 0 14.778l-14.629 14.629a10.42 10.42 0 0 1-7.39 3.061m293.264 4.436h-20.688c-5.771 0-10.449-4.678-10.449-10.449s4.678-10.449 10.449-10.449h20.688c5.771 0 10.449 4.678 10.449 10.449s-4.678 10.449-10.449 10.449m-242.817 42.608a10.4 10.4 0 0 1-7.388-3.061l-14.618-14.618c-4.08-4.08-4.08-10.697 0-14.778s10.697-4.08 14.778 0l14.618 14.618c4.08 4.08 4.08 10.697 0 14.778a10.4 10.4 0 0 1-7.39 3.061m260.428 67.333c-2.674 0-5.348-1.02-7.388-3.061l-14.618-14.617c-4.08-4.08-4.081-10.697 0-14.777s10.697-4.081 14.777 0l14.618 14.617c4.08 4.08 4.081 10.697 0 14.777a10.42 10.42 0 0 1-7.389 3.061m-93.428-102.633a10.4 10.4 0 0 1-7.388-3.061l-14.617-14.617c-4.08-4.08-4.08-10.697 0-14.778s10.697-4.08 14.778 0l14.617 14.617c4.08 4.08 4.08 10.697 0 14.778a10.42 10.42 0 0 1-7.39 3.061m-138.652-15.551a10.42 10.42 0 0 1-7.696-3.378c-3.905-4.249-3.627-10.859.622-14.763l15.22-13.989c4.249-3.906 10.86-3.628 14.763.622 3.905 4.249 3.627 10.859-.622 14.763l-15.22 13.989a10.4 10.4 0 0 1-7.067 2.756m83.848 37.244h-.288c-5.771-.011-10.441-4.698-10.429-10.469.012-5.764 4.687-10.429 10.449-10.429h.288c5.771.011 10.441 4.698 10.429 10.469-.012 5.764-4.688 10.429-10.449 10.429" class="a"/><path d="M437.019 74.981C388.668 26.628 324.38 0 256 0S123.332 26.628 74.981 74.981 0 187.62 0 256s26.628 132.668 74.981 181.019S187.62 512 256 512s132.668-26.628 181.019-74.981S512 324.38 512 256s-26.628-132.668-74.981-181.019M256 20.898c129.635 0 235.102 105.467 235.102 235.102 0 15.182-1.464 30.026-4.227 44.414-4.281-1.139-7.47-5.083-7.47-9.711v-2.721c0-16.741-13.591-30.624-30.297-30.944-8.235-.159-16.057 2.978-22.022 8.829-6.021 5.906-9.473 14.113-9.473 22.52v24.856c0 4.314-1.782 8.536-4.886 11.582-2.97 2.912-6.846 4.462-10.82 4.397-8.326-.16-15.099-7.098-15.099-15.468v-25.773c0-13.154-8.392-24.538-20.091-28.971q.042-1.501.043-3.011c0-46.06-29.007-87.788-72.182-103.836-5.411-2.01-11.425.745-13.434 6.154-2.01 5.409.745 11.424 6.154 13.434 35.027 13.02 58.562 46.877 58.562 84.248 0 49.549-40.312 89.861-89.861 89.861s-89.86-40.311-89.86-89.86c0-37.372 23.535-71.228 58.565-84.246 5.409-2.01 8.164-8.026 6.154-13.434s-8.022-8.165-13.434-6.154c-43.175 16.045-72.184 57.773-72.184 103.835a110.2 110.2 0 0 0 7.085 38.971 30.15 30.15 0 0 0-6.607 18.808v25.763c0 3.848-1.589 7.614-4.359 10.332-2.642 2.591-6.036 3.973-9.617 3.913-7.407-.142-13.434-6.317-13.434-13.767v-23.709c0-9.424-3.872-18.627-10.623-25.251-6.681-6.554-15.435-10.081-24.652-9.889-18.711.358-33.933 15.907-33.933 34.66v9.364c0 2.461-1.019 4.871-2.794 6.613-1.668 1.635-3.808 2.506-6.034 2.47-3.374-.065-6.387-2.139-7.733-5.21-7.543-23.011-11.64-47.569-11.64-73.07C20.898 126.365 126.365 20.898 256 20.898m0 470.204c-94.256 0-175.718-55.763-213.173-136.024 6.781-.56 13.126-3.458 18.112-8.35 5.756-5.647 9.057-13.495 9.057-21.531v-9.364c0-7.449 6.027-13.624 13.435-13.767 3.561-.079 6.976 1.322 9.617 3.913 2.77 2.718 4.359 6.484 4.359 10.332v23.709c0 18.754 15.222 34.302 33.932 34.66q.332.006.664.006c8.973 0 17.47-3.499 23.989-9.895 6.751-6.623 10.623-15.826 10.623-25.25v-18.215c20.172 27.524 52.723 45.432 89.384 45.432 52.209 0 96.09-36.312 107.73-85.007a10.03 10.03 0 0 1 2.18 6.23v25.773c0 19.673 15.968 35.984 35.596 36.361q.349.006.696.006c9.409 0 18.321-3.671 25.161-10.38 7.085-6.951 11.149-16.61 11.149-26.5v-24.856c0-2.83 1.17-5.6 3.21-7.602 1.927-1.889 4.429-2.882 6.986-2.854 5.403.104 9.8 4.612 9.8 10.05v2.721c0 14.409 10.071 26.69 23.526 30.04C453.848 418.996 363.189 491.102 256 491.102" class="a"/></svg>