<svg width="111" height="32" viewBox="0 0 111 32" fill="none" xmlns="http://www.w3.org/2000/svg">
<g clip-path="url(#clip0_1_49)">
<path d="M16 0.653076C7.52414 0.653076 0.653076 7.52414 0.653076 16C0.653076 24.4759 7.52414 31.347 16 31.347C24.4759 31.347 31.347 24.4759 31.347 16C31.347 7.52414 24.4759 0.653076 16 0.653076ZM16 22.2694C12.5376 22.2694 9.73064 19.4625 9.73064 16C9.73064 12.5376 12.5376 9.73064 16 9.73064C19.4625 9.73064 22.2694 12.5376 22.2694 16C22.2694 19.4625 19.4625 22.2694 16 22.2694Z" fill="#FFA30C"/>
<path d="M16 0.653076C7.52414 0.653076 0.653076 7.52414 0.653076 16C0.653076 17.6621 0.918326 19.262 1.40708 20.761C1.57226 21.2119 1.9997 21.5358 2.50439 21.5455C3.17383 21.5583 3.72176 20.9961 3.72176 20.3248V19.7395C3.72176 18.9134 4.38183 18.2419 5.20201 18.2262C6.04839 18.21 6.74114 18.9208 6.74114 19.7695V21.2513C6.74114 22.0775 7.4012 22.749 8.22139 22.7646C9.06776 22.7809 9.76051 22.0701 9.76051 21.2214V19.6112C9.76051 19.1966 9.96951 18.8237 10.2871 18.602L10.2942 18.6009C9.93239 17.8086 9.73064 16.928 9.73064 16C9.73064 12.5376 12.5376 9.73064 16 9.73064C19.4625 9.73064 22.2694 12.5376 22.2694 16C22.2694 16.245 22.2548 16.4867 22.2275 16.7245L22.2694 16.7178C22.9636 16.7311 23.5224 17.2996 23.5224 17.9989V19.6097C23.5224 20.4938 24.2288 21.2125 25.1066 21.2293C26.0124 21.2467 26.7538 20.486 26.7538 19.5777V18.0242C26.7538 17.3058 27.3402 16.7041 28.0566 16.7178C28.7509 16.7311 29.3096 17.2996 29.3096 17.9989V18.169C29.3096 18.8683 29.8684 19.4367 30.5626 19.45H30.5646L30.9431 19.5098C31.2068 18.3825 31.3468 17.2076 31.3468 16C31.347 7.52414 24.4759 0.653076 16 0.653076Z" fill="#871B00"/>
<path d="M20.8417 5.0835C20.7577 5.0835 20.6724 5.06719 20.5901 5.03282C17.9845 3.9435 15.0654 3.81788 12.3707 4.67925C12.0274 4.789 11.6597 4.59957 11.5499 4.256C11.4401 3.9125 11.6296 3.54494 11.9731 3.43513C14.9631 2.47944 18.2022 2.61894 21.0939 3.82775C21.4267 3.96688 21.5837 4.34944 21.4445 4.68213C21.3398 4.93257 21.0971 5.0835 20.8417 5.0835Z" fill="white"/>
<path d="M22.6573 6.02477C22.5375 6.02477 22.4163 5.99183 22.3081 5.92314C22.0064 5.73308 21.9125 5.33527 22.099 5.03002C22.287 4.7222 22.689 4.62527 22.9968 4.81333C23.0041 4.81777 23.0131 4.82352 23.0202 4.82827C23.3203 5.02833 23.4014 5.43377 23.2013 5.73389C23.0754 5.9227 22.8684 6.02477 22.6573 6.02477Z" fill="white"/>
<path d="M26.5797 12.147C26.4126 12.147 26.2454 12.0832 26.1179 11.9556C25.8629 11.7006 25.8629 11.2871 26.1179 11.032L27.0323 10.1177C27.2873 9.8627 27.7008 9.8627 27.9559 10.1177C28.2109 10.3727 28.2109 10.7863 27.9559 11.0413L27.0416 11.9556C26.9139 12.0832 26.7468 12.147 26.5797 12.147Z" fill="white"/>
<path d="M3.87383 15.4427C3.7067 15.4427 3.53951 15.379 3.41208 15.2514C3.15708 14.9964 3.15708 14.5829 3.41208 14.3278L4.32639 13.4135C4.58139 13.1585 4.99495 13.1585 5.25001 13.4135C5.50501 13.6685 5.50501 14.082 5.25001 14.3371L4.3357 15.2514C4.20814 15.379 4.04095 15.4427 3.87383 15.4427Z" fill="white"/>
<path d="M5.84312 8.29386C5.676 8.29386 5.50881 8.23011 5.38137 8.10255C5.12637 7.84755 5.12637 7.43399 5.38137 7.17893L6.29569 6.26461C6.55069 6.00961 6.96425 6.00961 7.21931 6.26461C7.47431 6.51961 7.47431 6.93318 7.21931 7.18824L6.305 8.10255C6.17737 8.23011 6.01025 8.29386 5.84312 8.29386Z" fill="white"/>
<path d="M24.1721 8.57114H22.8791C22.5184 8.57114 22.2261 8.27876 22.2261 7.91808C22.2261 7.55739 22.5184 7.26501 22.8791 7.26501H24.1721C24.5328 7.26501 24.8252 7.55739 24.8252 7.91808C24.8252 8.27876 24.5328 8.57114 24.1721 8.57114Z" fill="white"/>
<path d="M8.99607 11.2341C8.82894 11.2341 8.66176 11.1704 8.53432 11.0428L7.62069 10.1292C7.36569 9.87418 7.36569 9.46062 7.62069 9.20556C7.87569 8.95049 8.28926 8.95056 8.54432 9.20556L9.45794 10.1192C9.71294 10.3742 9.71294 10.7877 9.45794 11.0428C9.33038 11.1704 9.16319 11.2341 8.99607 11.2341Z" fill="white"/>
<path d="M25.2728 15.4424C25.1057 15.4424 24.9386 15.3787 24.8111 15.2511L23.8975 14.3376C23.6425 14.0826 23.6424 13.669 23.8975 13.414C24.1525 13.159 24.566 13.1589 24.821 13.414L25.7346 14.3276C25.9896 14.5826 25.9897 14.9961 25.7346 15.2511C25.6071 15.3786 25.4399 15.4424 25.2728 15.4424Z" fill="white"/>
<path d="M19.4336 9.02788C19.2664 9.02788 19.0993 8.96413 18.9718 8.83657L18.0583 7.923C17.8033 7.668 17.8033 7.25444 18.0583 6.99938C18.3133 6.74432 18.7268 6.74438 18.9819 6.99938L19.8954 7.91294C20.1504 8.16794 20.1504 8.5815 19.8954 8.83657C19.7678 8.96413 19.6006 9.02788 19.4336 9.02788Z" fill="white"/>
<path d="M10.7678 8.05591C10.5914 8.05591 10.4156 7.98491 10.2868 7.84479C10.0428 7.57923 10.0601 7.1661 10.3257 6.9221L11.2769 6.04779C11.5425 5.80366 11.9557 5.82104 12.1996 6.08666C12.4437 6.35223 12.4263 6.76535 12.1608 7.00935L11.2095 7.88366C11.0842 7.99898 10.9258 8.05591 10.7678 8.05591Z" fill="white"/>
<path d="M16.0083 10.3837C16.0079 10.3837 16.0074 10.3837 16.007 10.3837H15.9903C15.6296 10.383 15.3378 10.0901 15.3385 9.72939C15.3393 9.36914 15.6314 9.07758 15.9916 9.07758C15.992 9.07758 15.9924 9.07758 15.9929 9.07758H16.0096C16.3703 9.07826 16.6621 9.3712 16.6614 9.73189C16.6606 10.0921 16.3684 10.3837 16.0083 10.3837Z" fill="white"/>
<path d="M27.3137 4.68631C24.2918 1.66425 20.2737 0 16 0C11.7263 0 7.70825 1.66425 4.68631 4.68631C1.66438 7.70838 0 11.7263 0 16C0 20.2737 1.66425 24.2918 4.68631 27.3137C7.70838 30.3356 11.7263 32 16 32C20.2737 32 24.2918 30.3358 27.3137 27.3137C30.3356 24.2916 32 20.2737 32 16C32 11.7263 30.3358 7.70825 27.3137 4.68631ZM16 1.30613C24.1022 1.30613 30.6939 7.89781 30.6939 16C30.6939 16.9489 30.6024 17.8766 30.4297 18.7759C30.1621 18.7047 29.9628 18.4582 29.9628 18.1689V17.9989C29.9628 16.9526 29.1134 16.0849 28.0693 16.0649C27.5546 16.0549 27.0657 16.251 26.6929 16.6167C26.3166 16.9858 26.1008 17.4987 26.1008 18.0242V19.5777C26.1008 19.8473 25.9894 20.1112 25.7954 20.3016C25.6098 20.4836 25.3676 20.5804 25.1192 20.5764C24.5988 20.5664 24.1755 20.1327 24.1755 19.6096V17.9988C24.1755 17.1767 23.651 16.4652 22.9198 16.1881C22.9215 16.1256 22.9225 16.0629 22.9225 15.9999C22.9225 13.1212 21.1096 10.5132 18.4111 9.51019C18.0729 9.38456 17.6971 9.55675 17.5715 9.89481C17.4459 10.2329 17.6181 10.6088 17.9561 10.7344C20.1453 11.5482 21.6162 13.6642 21.6162 15.9999C21.6162 19.0967 19.0967 21.6162 15.9999 21.6162C12.9031 21.6162 10.3837 19.0968 10.3837 16C10.3837 13.6642 11.8546 11.5482 14.044 10.7346C14.3821 10.609 14.5543 10.233 14.4286 9.895C14.3031 9.557 13.9272 9.38469 13.589 9.51038C10.8906 10.5132 9.0775 13.1212 9.0775 16.0001C9.0775 16.8569 9.23444 17.6776 9.52031 18.4357C9.25675 18.7657 9.10738 19.179 9.10738 19.6112V21.2214C9.10738 21.4619 9.00806 21.6973 8.83494 21.8672C8.66981 22.0291 8.45769 22.1155 8.23388 22.1117C7.77094 22.1029 7.39425 21.7169 7.39425 21.2513V19.7695C7.39425 19.1805 7.15225 18.6053 6.73031 18.1913C6.31275 17.7817 5.76562 17.5612 5.18956 17.5732C4.02012 17.5956 3.06875 18.5674 3.06875 19.7395V20.3248C3.06875 20.4786 3.00506 20.6292 2.89412 20.7381C2.78987 20.8402 2.65612 20.8947 2.517 20.8924C2.30612 20.8884 2.11781 20.7588 2.03369 20.5668C1.56225 19.1286 1.30619 17.5937 1.30619 15.9999C1.30613 7.89781 7.89781 1.30613 16 1.30613ZM16 30.6939C10.109 30.6939 5.01763 27.2087 2.67669 22.1924C3.1005 22.1574 3.49706 21.9762 3.80869 21.6705C4.16844 21.3176 4.37475 20.8271 4.37475 20.3248V19.7396C4.37475 19.274 4.75144 18.8881 5.21444 18.8791C5.437 18.8742 5.65044 18.9618 5.8155 19.1237C5.98862 19.2936 6.08794 19.5289 6.08794 19.7694V21.2512C6.08794 22.4234 7.03931 23.3951 8.20869 23.4175C8.22256 23.4177 8.23631 23.4179 8.25019 23.4179C8.811 23.4179 9.34206 23.1992 9.7495 22.7994C10.1714 22.3855 10.4134 21.8103 10.4134 21.2213V20.0829C11.6742 21.8031 13.7086 22.9224 15.9999 22.9224C19.263 22.9224 22.0056 20.6529 22.7331 17.6094C22.8181 17.7169 22.8693 17.8524 22.8693 17.9988V19.6096C22.8693 20.8392 23.8673 21.8586 25.0941 21.8822C25.1086 21.8824 25.1231 21.8826 25.1376 21.8826C25.7256 21.8826 26.2826 21.6531 26.7101 21.2338C27.1529 20.7994 27.4069 20.1957 27.4069 19.5776V18.0241C27.4069 17.8472 27.4801 17.6741 27.6076 17.5489C27.728 17.4309 27.8844 17.3688 28.0442 17.3706C28.3819 17.3771 28.6567 17.6588 28.6567 17.9987V18.1688C28.6567 19.0693 29.2861 19.8369 30.1271 20.0462C28.3655 26.1872 22.6993 30.6939 16 30.6939Z" fill="white" stroke="white" stroke-width="0.2"/>
</g>
<path d="M47.17 10.59C46.8 10.4 46.395 10.235 45.955 10.095C45.515 9.955 45.085 9.885 44.665 9.885C44.085 9.885 43.62 10.02 43.27 10.29C42.93 10.56 42.76 10.92 42.76 11.37C42.76 11.71 42.87 12 43.09 12.24C43.31 12.47 43.6 12.67 43.96 12.84C44.32 13.01 44.695 13.17 45.085 13.32C45.425 13.45 45.76 13.595 46.09 13.755C46.42 13.915 46.715 14.115 46.975 14.355C47.245 14.595 47.455 14.89 47.605 15.24C47.765 15.59 47.845 16.025 47.845 16.545C47.845 17.115 47.7 17.635 47.41 18.105C47.13 18.575 46.725 18.945 46.195 19.215C45.665 19.485 45.035 19.62 44.305 19.62C43.825 19.62 43.365 19.565 42.925 19.455C42.495 19.345 42.095 19.205 41.725 19.035C41.355 18.855 41.025 18.67 40.735 18.48L41.38 17.34C41.62 17.51 41.895 17.675 42.205 17.835C42.515 17.985 42.84 18.11 43.18 18.21C43.52 18.3 43.85 18.345 44.17 18.345C44.51 18.345 44.845 18.285 45.175 18.165C45.515 18.035 45.795 17.84 46.015 17.58C46.235 17.32 46.345 16.975 46.345 16.545C46.345 16.175 46.245 15.87 46.045 15.63C45.855 15.38 45.6 15.17 45.28 15C44.96 14.82 44.62 14.66 44.26 14.52C43.92 14.39 43.575 14.25 43.225 14.1C42.875 13.94 42.55 13.75 42.25 13.53C41.95 13.3 41.71 13.02 41.53 12.69C41.35 12.36 41.26 11.96 41.26 11.49C41.26 10.92 41.395 10.425 41.665 10.005C41.945 9.575 42.325 9.24 42.805 9C43.285 8.75 43.835 8.615 44.455 8.595C45.155 8.595 45.77 8.68 46.3 8.85C46.84 9.02 47.315 9.23 47.725 9.48L47.17 10.59ZM49.9455 13.29H51.3405V19.5H49.9455V13.29ZM49.8405 11.04C49.8405 10.82 49.9255 10.635 50.0955 10.485C50.2755 10.335 50.4705 10.26 50.6805 10.26C50.8905 10.26 51.0755 10.335 51.2355 10.485C51.4055 10.635 51.4905 10.82 51.4905 11.04C51.4905 11.27 51.4055 11.46 51.2355 11.61C51.0755 11.75 50.8905 11.82 50.6805 11.82C50.4705 11.82 50.2755 11.745 50.0955 11.595C49.9255 11.445 49.8405 11.26 49.8405 11.04ZM54.9991 13.29L55.1191 14.685L55.0591 14.565C55.2891 14.095 55.6141 13.725 56.0341 13.455C56.4641 13.185 56.9541 13.05 57.5041 13.05C57.8541 13.05 58.1641 13.105 58.4341 13.215C58.7041 13.325 58.9241 13.485 59.0941 13.695C59.2741 13.895 59.3891 14.145 59.4391 14.445L59.3641 14.49C59.6041 14.04 59.9341 13.69 60.3541 13.44C60.7841 13.18 61.2341 13.05 61.7041 13.05C62.3141 13.05 62.7941 13.225 63.1441 13.575C63.5041 13.915 63.6891 14.36 63.6991 14.91V19.5H62.3041V15.405C62.2941 15.085 62.2141 14.82 62.0641 14.61C61.9241 14.39 61.6741 14.27 61.3141 14.25C60.9541 14.25 60.6291 14.36 60.3391 14.58C60.0591 14.8 59.8391 15.085 59.6791 15.435C59.5191 15.775 59.4341 16.145 59.4241 16.545V19.5H58.0291V15.405C58.0191 15.085 57.9341 14.82 57.7741 14.61C57.6241 14.39 57.3691 14.27 57.0091 14.25C56.6391 14.25 56.3141 14.36 56.0341 14.58C55.7541 14.8 55.5341 15.085 55.3741 15.435C55.2241 15.785 55.1491 16.16 55.1491 16.56V19.5H53.7541V13.29H54.9991ZM69.792 19.65C69.322 19.65 68.867 19.54 68.427 19.32C67.997 19.1 67.662 18.805 67.422 18.435L67.512 18V22.485H66.132V13.2H67.332L67.527 14.79L67.377 14.355C67.677 13.975 68.057 13.66 68.517 13.41C68.977 13.16 69.492 13.035 70.062 13.035C70.642 13.035 71.162 13.175 71.622 13.455C72.092 13.735 72.462 14.125 72.732 14.625C73.002 15.125 73.137 15.71 73.137 16.38C73.137 17.05 72.992 17.63 72.702 18.12C72.412 18.61 72.012 18.99 71.502 19.26C71.002 19.52 70.432 19.65 69.792 19.65ZM69.522 18.54C69.922 18.54 70.287 18.45 70.617 18.27C70.957 18.08 71.227 17.825 71.427 17.505C71.627 17.175 71.727 16.805 71.727 16.395C71.727 15.975 71.632 15.605 71.442 15.285C71.252 14.955 70.997 14.695 70.677 14.505C70.367 14.315 70.017 14.22 69.627 14.22C69.267 14.22 68.942 14.29 68.652 14.43C68.362 14.57 68.122 14.765 67.932 15.015C67.742 15.255 67.607 15.535 67.527 15.855V16.89C67.577 17.21 67.697 17.495 67.887 17.745C68.077 17.995 68.312 18.19 68.592 18.33C68.882 18.47 69.192 18.54 69.522 18.54ZM75.0236 7.89H76.4186V19.5H75.0236V7.89ZM81.7122 19.65C81.0022 19.65 80.3922 19.51 79.8822 19.23C79.3722 18.94 78.9772 18.55 78.6972 18.06C78.4272 17.56 78.2922 16.99 78.2922 16.35C78.2922 15.74 78.4472 15.185 78.7572 14.685C79.0672 14.185 79.4822 13.785 80.0022 13.485C80.5222 13.185 81.1022 13.035 81.7422 13.035C82.5622 13.035 83.2422 13.275 83.7822 13.755C84.3222 14.235 84.6872 14.895 84.8772 15.735L79.7622 17.535L79.4322 16.71L83.6322 15.18L83.3322 15.375C83.2122 15.045 83.0122 14.76 82.7322 14.52C82.4522 14.27 82.0872 14.145 81.6372 14.145C81.2572 14.145 80.9172 14.24 80.6172 14.43C80.3172 14.61 80.0822 14.86 79.9122 15.18C79.7422 15.5 79.6572 15.865 79.6572 16.275C79.6572 16.705 79.7472 17.085 79.9272 17.415C80.1072 17.735 80.3522 17.99 80.6622 18.18C80.9822 18.36 81.3422 18.45 81.7422 18.45C82.0122 18.45 82.2722 18.4 82.5222 18.3C82.7822 18.2 83.0222 18.07 83.2422 17.91L83.8872 18.945C83.5772 19.155 83.2272 19.325 82.8372 19.455C82.4572 19.585 82.0822 19.65 81.7122 19.65ZM94.6113 8.655C95.4013 8.655 96.0763 8.79 96.6363 9.06C97.1963 9.32 97.6263 9.7 97.9263 10.2C98.2363 10.7 98.3913 11.305 98.3913 12.015C98.3913 12.445 98.3263 12.87 98.1963 13.29C98.0663 13.7 97.8563 14.075 97.5663 14.415C97.2863 14.745 96.9163 15.01 96.4563 15.21C95.9963 15.41 95.4363 15.51 94.7763 15.51H93.1713V19.5H91.7163V8.655H94.6113ZM94.7613 14.115C95.1913 14.115 95.5463 14.045 95.8263 13.905C96.1063 13.765 96.3263 13.59 96.4863 13.38C96.6463 13.16 96.7613 12.93 96.8313 12.69C96.9013 12.45 96.9363 12.235 96.9363 12.045C96.9363 11.825 96.9013 11.6 96.8313 11.37C96.7613 11.13 96.6413 10.915 96.4713 10.725C96.3113 10.525 96.0963 10.365 95.8263 10.245C95.5663 10.115 95.2413 10.05 94.8513 10.05H93.1713V14.115H94.7613ZM100.292 13.29H101.687V19.5H100.292V13.29ZM100.187 11.04C100.187 10.82 100.272 10.635 100.442 10.485C100.622 10.335 100.817 10.26 101.027 10.26C101.237 10.26 101.422 10.335 101.582 10.485C101.752 10.635 101.837 10.82 101.837 11.04C101.837 11.27 101.752 11.46 101.582 11.61C101.422 11.75 101.237 11.82 101.027 11.82C100.817 11.82 100.622 11.745 100.442 11.595C100.272 11.445 100.187 11.26 100.187 11.04ZM106.981 19.65C106.271 19.65 105.661 19.51 105.151 19.23C104.641 18.94 104.246 18.55 103.966 18.06C103.696 17.56 103.561 16.99 103.561 16.35C103.561 15.74 103.716 15.185 104.026 14.685C104.336 14.185 104.751 13.785 105.271 13.485C105.791 13.185 106.371 13.035 107.011 13.035C107.831 13.035 108.511 13.275 109.051 13.755C109.591 14.235 109.956 14.895 110.146 15.735L105.031 17.535L104.701 16.71L108.901 15.18L108.601 15.375C108.481 15.045 108.281 14.76 108.001 14.52C107.721 14.27 107.356 14.145 106.906 14.145C106.526 14.145 106.186 14.24 105.886 14.43C105.586 14.61 105.351 14.86 105.181 15.18C105.011 15.5 104.926 15.865 104.926 16.275C104.926 16.705 105.016 17.085 105.196 17.415C105.376 17.735 105.621 17.99 105.931 18.18C106.251 18.36 106.611 18.45 107.011 18.45C107.281 18.45 107.541 18.4 107.791 18.3C108.051 18.2 108.291 18.07 108.511 17.91L109.156 18.945C108.846 19.155 108.496 19.325 108.106 19.455C107.726 19.585 107.351 19.65 106.981 19.65Z" fill="white"/>
<defs>
<clipPath id="clip0_1_49">
<rect width="32" height="32" fill="white"/>
</clipPath>
</defs>
</svg>
