<?xml version="1.0" encoding="iso-8859-1"?>
<!-- Uploaded to: SVG Repo, www.svgrepo.com, Generator: SVG Repo Mixer Tools -->
<svg version="1.1" id="Layer_1" xmlns="http://www.w3.org/2000/svg" xmlns:xlink="http://www.w3.org/1999/xlink"
	 viewBox="0 0 512 512" xml:space="preserve">
    <style>
     @media (prefers-color-scheme: dark) {
     .a { fill: #ffffff }
     }
   </style>
<path style="fill:#FFA30C;" d="M256,10.449C120.386,10.449,10.449,120.386,10.449,256S120.386,501.551,256,501.551
	S501.551,391.614,501.551,256S391.614,10.449,256,10.449z M256,356.31c-55.399,0-100.31-44.911-100.31-100.31
	S200.601,155.69,256,155.69S356.31,200.601,356.31,256S311.399,356.31,256,356.31z"/>
<path style="fill:#871B00;" d="M256,10.449C120.386,10.449,10.449,120.386,10.449,256c0,26.594,4.244,52.192,12.064,76.175
	c2.643,7.215,9.482,12.398,17.557,12.552c10.711,0.206,19.478-8.789,19.478-19.53v-9.365c0-13.218,10.561-23.962,23.684-24.213
	c13.542-0.26,24.626,11.113,24.626,24.692v23.71c0,13.218,10.561,23.963,23.684,24.213c13.542,0.26,24.626-11.112,24.626-24.692
	v-25.763c0-6.633,3.344-12.6,8.425-16.147l0.114-0.018c-5.789-12.676-9.017-26.767-9.017-41.614
	c0-55.399,44.911-100.31,100.31-100.31S356.31,200.601,356.31,256c0,3.92-0.233,7.787-0.671,11.591l0.671-0.106
	c11.108,0.213,20.048,9.308,20.048,20.497v25.773c0,14.146,11.303,25.645,25.347,25.914c14.493,0.278,26.355-11.893,26.355-26.426
	v-24.856c0-11.495,9.383-21.122,20.846-20.902c11.108,0.213,20.048,9.308,20.048,20.497v2.721c0,11.189,8.94,20.284,20.048,20.497
	h0.031l6.056,0.956c4.22-18.036,6.46-36.834,6.46-56.156C501.551,120.386,391.614,10.449,256,10.449z"/>
<path class="a" d="M333.468,81.336c-1.344,0-2.709-0.261-4.026-0.811c-41.69-17.429-88.395-19.439-131.51-5.657
	c-5.494,1.756-11.377-1.275-13.134-6.772c-1.756-5.496,1.275-11.377,6.772-13.134c47.839-15.291,99.665-13.059,145.933,6.282
	c5.325,2.226,7.837,8.347,5.61,13.67C341.437,78.921,337.554,81.336,333.468,81.336z"/>
<path class="a" d="M362.517,96.396c-1.917,0-3.856-0.527-5.587-1.626c-4.828-3.041-6.33-9.406-3.346-14.29
	c3.008-4.925,9.44-6.476,14.364-3.467c0.117,0.071,0.261,0.163,0.375,0.239c4.801,3.201,6.099,9.688,2.898,14.49
	C369.207,94.763,365.894,96.396,362.517,96.396z"/>
<path class="a" d="M425.275,194.351c-2.674,0-5.349-1.02-7.388-3.061c-4.08-4.08-4.08-10.697,0-14.778l14.629-14.629
	c4.08-4.08,10.697-4.08,14.778,0c4.08,4.08,4.08,10.697,0,14.778l-14.629,14.629C430.623,193.331,427.948,194.351,425.275,194.351z"
	/>
<path class="a" d="M61.981,247.084c-2.674,0-5.349-1.02-7.388-3.061c-4.08-4.08-4.08-10.697,0-14.778l14.629-14.629
	c4.08-4.08,10.697-4.08,14.778,0c4.08,4.08,4.08,10.697,0,14.778l-14.629,14.629C67.33,246.064,64.655,247.084,61.981,247.084z"/>
<path class="a" d="M93.49,132.702c-2.674,0-5.349-1.02-7.388-3.061c-4.08-4.08-4.08-10.697,0-14.778l14.629-14.629
	c4.08-4.08,10.697-4.08,14.778,0c4.08,4.08,4.08,10.697,0,14.778l-14.629,14.629C98.838,131.682,96.164,132.702,93.49,132.702z"/>
<path class="a" d="M386.754,137.138h-20.688c-5.771,0-10.449-4.678-10.449-10.449c0-5.771,4.678-10.449,10.449-10.449h20.688
	c5.771,0,10.449,4.678,10.449,10.449C397.203,132.46,392.525,137.138,386.754,137.138z"/>
<path class="a" d="M143.937,179.746c-2.674,0-5.349-1.02-7.388-3.061l-14.618-14.618c-4.08-4.08-4.08-10.697,0-14.778
	c4.08-4.081,10.697-4.08,14.778,0l14.618,14.618c4.08,4.08,4.08,10.697,0,14.778C149.286,178.727,146.611,179.746,143.937,179.746z"
	/>
<path class="a" d="M404.365,247.079c-2.674,0-5.348-1.02-7.388-3.061l-14.618-14.617c-4.08-4.08-4.081-10.697,0-14.777
	c4.081-4.08,10.697-4.081,14.777,0l14.618,14.617c4.08,4.08,4.081,10.697,0,14.777C409.713,246.058,407.039,247.079,404.365,247.079
	z"/>
<path class="a" d="M310.937,144.446c-2.674,0-5.349-1.02-7.388-3.061l-14.617-14.617c-4.08-4.08-4.08-10.697,0-14.778
	c4.08-4.081,10.697-4.08,14.778,0l14.617,14.617c4.08,4.08,4.08,10.697,0,14.778C316.284,143.426,313.61,144.446,310.937,144.446z"
	/>
<path class="a" d="M172.285,128.895c-2.822,0-5.635-1.136-7.696-3.378c-3.905-4.249-3.627-10.859,0.622-14.763l15.22-13.989
	c4.249-3.906,10.86-3.628,14.763,0.622c3.905,4.249,3.627,10.859-0.622,14.763l-15.22,13.989
	C177.347,127.984,174.812,128.895,172.285,128.895z"/>
<path class="a" d="M256.133,166.139c-0.007,0-0.014,0-0.021,0h-0.267c-5.771-0.011-10.441-4.698-10.429-10.469
	c0.012-5.764,4.687-10.429,10.449-10.429c0.007,0,0.014,0,0.021,0h0.267c5.771,0.011,10.441,4.698,10.429,10.469
	C266.57,161.474,261.894,166.139,256.133,166.139z"/>
<path class="a" d="M437.019,74.981C388.668,26.628,324.38,0,256,0S123.332,26.628,74.981,74.981S0,187.62,0,256s26.628,132.668,74.981,181.019
	S187.62,512,256,512s132.668-26.628,181.019-74.981S512,324.38,512,256S485.372,123.332,437.019,74.981z M256,20.898
	c129.635,0,235.102,105.467,235.102,235.102c0,15.182-1.464,30.026-4.227,44.414c-4.281-1.139-7.47-5.083-7.47-9.711v-2.721
	c0-16.741-13.591-30.624-30.297-30.944c-8.235-0.159-16.057,2.978-22.022,8.829c-6.021,5.906-9.473,14.113-9.473,22.52v24.856
	c0,4.314-1.782,8.536-4.886,11.582c-2.97,2.912-6.846,4.462-10.82,4.397c-8.326-0.16-15.099-7.098-15.099-15.468v-25.773
	c0-13.154-8.392-24.538-20.091-28.971c0.027-1.001,0.043-2.004,0.043-3.011c0-46.06-29.007-87.788-72.182-103.836
	c-5.411-2.01-11.425,0.745-13.434,6.154c-2.01,5.409,0.745,11.424,6.154,13.434c35.027,13.02,58.562,46.877,58.562,84.248
	c0,49.549-40.312,89.861-89.861,89.861S166.139,305.549,166.139,256c0-37.372,23.535-71.228,58.565-84.246
	c5.409-2.01,8.164-8.026,6.154-13.434c-2.009-5.408-8.022-8.165-13.434-6.154c-43.175,16.045-72.184,57.773-72.184,103.835
	c0,13.71,2.511,26.841,7.085,38.971c-4.217,5.279-6.607,11.892-6.607,18.808v25.763c0,3.848-1.589,7.614-4.359,10.332
	c-2.642,2.591-6.036,3.973-9.617,3.913c-7.407-0.142-13.434-6.317-13.434-13.767v-23.709c0-9.424-3.872-18.627-10.623-25.251
	c-6.681-6.554-15.435-10.081-24.652-9.889C64.322,281.53,49.1,297.079,49.1,315.832v9.364c0,2.461-1.019,4.871-2.794,6.613
	c-1.668,1.635-3.808,2.506-6.034,2.47c-3.374-0.065-6.387-2.139-7.733-5.21c-7.543-23.011-11.64-47.569-11.64-73.07
	C20.898,126.365,126.365,20.898,256,20.898z M256,491.102c-94.256,0-175.718-55.763-213.173-136.024
	c6.781-0.56,13.126-3.458,18.112-8.35c5.756-5.647,9.057-13.495,9.057-21.531v-9.364c0-7.449,6.027-13.624,13.435-13.767
	c3.561-0.079,6.976,1.322,9.617,3.913c2.77,2.718,4.359,6.484,4.359,10.332v23.709c0,18.754,15.222,34.302,33.932,34.66
	c0.222,0.004,0.442,0.006,0.664,0.006c8.973,0,17.47-3.499,23.989-9.895c6.751-6.623,10.623-15.826,10.623-25.25v-18.215
	c20.172,27.524,52.723,45.432,89.384,45.432c52.209,0,96.09-36.312,107.73-85.007c1.36,1.72,2.18,3.887,2.18,6.23v25.773
	c0,19.673,15.968,35.984,35.596,36.361c0.233,0.004,0.464,0.006,0.696,0.006c9.409,0,18.321-3.671,25.161-10.38
	c7.085-6.951,11.149-16.61,11.149-26.5v-24.856c0-2.83,1.17-5.6,3.21-7.602c1.927-1.889,4.429-2.882,6.986-2.854
	c5.403,0.104,9.8,4.612,9.8,10.05v2.721c0,14.409,10.071,26.69,23.526,30.04C453.848,418.996,363.189,491.102,256,491.102z"/>
</svg>
