<?xml version="1.0" encoding="utf-8"?>

<!DOCTYPE svg PUBLIC "-//W3C//DTD SVG 1.1//EN" "http://www.w3.org/Graphics/SVG/1.1/DTD/svg11.dtd">
<svg version="1.1" id="_x32_" xmlns="http://www.w3.org/2000/svg" xmlns:xlink="http://www.w3.org/1999/xlink"
	 viewBox="0 0 512 512"  xml:space="preserve">
<style type="text/css">
	.st0{fill:#000000;}
</style>
<g>
	<path class="st0" d="M278.796,94.952c26.218,0,47.472-21.254,47.472-47.481C326.268,21.254,305.014,0,278.796,0
		c-26.227,0-47.481,21.254-47.481,47.472C231.315,73.698,252.569,94.952,278.796,94.952z"/>
	<path class="st0" d="M407.86,236.772l-54.377-28.589l-22.92-47.087c-11.556-23.754-33.698-40.612-59.679-45.439l-23.58-4.386
		c-11.859-2.197-24.111-0.614-35.027,4.542l-68.67,32.426c-7.628,3.599-13.654,9.863-16.969,17.601l-30.539,71.308
		c-1.941,4.533-1.978,9.652-0.11,14.202c1.868,4.561,5.494,8.187,10.046,10.055l0.686,0.275c9.102,3.726,19.532-0.384,23.654-9.314
		l28.03-60.704l44.368-14.34l-43.964,195.39l-42.82,106.765c-2.372,5.916-2.106,12.555,0.715,18.26
		c2.82,5.714,7.938,9.954,14.074,11.667l1.85,0.512c9.844,2.747,20.293-1.511,25.42-10.357l50.751-87.663l30.237-59.998
		l55.182,60.896l40.76,86.354c4.596,9.734,15.466,14.834,25.887,12.133l0.458-0.128c6.053-1.566,11.163-5.586,14.13-11.09
		c2.94-5.504,3.47-11.996,1.438-17.903l-29.99-86.93c-4.212-12.225-10.457-23.644-18.47-33.79l-48.699-64.394l17.866-92.92
		l23.058,29.294c2.848,3.626,6.538,6.52,10.741,8.426l60.658,27.388c4.387,1.979,9.387,2.098,13.864,0.33
		c4.479-1.768,8.05-5.274,9.9-9.716l0.192-0.467C419.562,250.874,416.019,241.067,407.86,236.772z"/>
</g>
</svg>
